<svg width="32" height="32" viewBox="0 0 32 32" fill="none" xmlns="http://www.w3.org/2000/svg">
<path d="M2.625 9.61136L5.74273 8.1008L8.86047 9.61136V13.0101L5.74273 14.5207L2.625 13.0101V9.61136Z" fill="url(#paint0_linear_12_23)"/>
<path d="M6.15842 13.5766H5.32703V18.8636H6.15842V13.5766Z" fill="url(#paint1_linear_12_23)"/>
<path d="M2.625 19.8077L5.74273 18.2971L8.86047 19.8077V23.2064L5.74273 24.717L2.625 23.2064V19.8077Z" fill="url(#paint2_linear_12_23)"/>
<path d="M13.2253 4.13556L16.3431 2.625L19.4608 4.13556V7.53433L16.3431 9.04489L13.2253 7.53433V4.13556Z" fill="url(#paint3_linear_12_23)"/>
<path d="M16.7588 8.28961H15.9274V13.5766H16.7588V8.28961Z" fill="url(#paint4_linear_12_23)"/>
<path d="M13.2253 14.3319L16.3431 12.8213L19.4608 14.3319V17.7306L16.3431 19.2412L13.2253 17.7306V14.3319Z" fill="url(#paint5_linear_12_23)"/>
<path d="M16.7588 18.4859H15.9274V23.7729H16.7588V18.4859Z" fill="url(#paint6_linear_12_23)"/>
<path d="M24.3308 23.0348L23.9982 22.2902L18.731 24.5375L19.0637 25.2822L24.3308 23.0348Z" fill="url(#paint7_linear_12_23)"/>
<path d="M13.2253 24.5282L16.3431 23.0176L19.4608 24.5282V27.9269L16.3431 29.4375L13.2253 27.9269V24.5282Z" fill="url(#paint8_linear_12_23)"/>
<path d="M23.202 9.61136L26.3198 8.1008L29.4375 9.61136V13.0101L26.3198 14.5207L23.202 13.0101V9.61136Z" fill="url(#paint9_linear_12_23)"/>
<path d="M23.1438 19.7931L26.2615 18.2825L29.3793 19.7931V23.1918L26.2615 24.7024L23.1438 23.1918V19.7931Z" fill="url(#paint10_linear_12_23)"/>
<defs>
<linearGradient id="paint0_linear_12_23" x1="2.625" y1="8.1008" x2="644.342" y2="631.383" gradientUnits="userSpaceOnUse">
<stop stop-color="#1FB6FF"/>
<stop offset="1" stop-color="#8B5CF6"/>
</linearGradient>
<linearGradient id="paint1_linear_12_23" x1="5.32703" y1="13.5766" x2="167.594" y2="39.0936" gradientUnits="userSpaceOnUse">
<stop stop-color="#1FB6FF"/>
<stop offset="1" stop-color="#8B5CF6"/>
</linearGradient>
<linearGradient id="paint2_linear_12_23" x1="2.625" y1="18.2971" x2="644.342" y2="641.579" gradientUnits="userSpaceOnUse">
<stop stop-color="#1FB6FF"/>
<stop offset="1" stop-color="#8B5CF6"/>
</linearGradient>
<linearGradient id="paint3_linear_12_23" x1="13.2253" y1="2.625" x2="654.942" y2="625.907" gradientUnits="userSpaceOnUse">
<stop stop-color="#1FB6FF"/>
<stop offset="1" stop-color="#8B5CF6"/>
</linearGradient>
<linearGradient id="paint4_linear_12_23" x1="15.9274" y1="8.28961" x2="178.194" y2="33.8066" gradientUnits="userSpaceOnUse">
<stop stop-color="#1FB6FF"/>
<stop offset="1" stop-color="#8B5CF6"/>
</linearGradient>
<linearGradient id="paint5_linear_12_23" x1="13.2253" y1="12.8213" x2="654.942" y2="636.103" gradientUnits="userSpaceOnUse">
<stop stop-color="#1FB6FF"/>
<stop offset="1" stop-color="#8B5CF6"/>
</linearGradient>
<linearGradient id="paint6_linear_12_23" x1="15.9274" y1="18.4859" x2="178.194" y2="44.0029" gradientUnits="userSpaceOnUse">
<stop stop-color="#1FB6FF"/>
<stop offset="1" stop-color="#8B5CF6"/>
</linearGradient>
<linearGradient id="paint7_linear_12_23" x1="23.9982" y1="22.2902" x2="65.7472" y2="177.866" gradientUnits="userSpaceOnUse">
<stop stop-color="#1FB6FF"/>
<stop offset="1" stop-color="#8B5CF6"/>
</linearGradient>
<linearGradient id="paint8_linear_12_23" x1="13.2253" y1="23.0176" x2="654.942" y2="646.3" gradientUnits="userSpaceOnUse">
<stop stop-color="#1FB6FF"/>
<stop offset="1" stop-color="#8B5CF6"/>
</linearGradient>
<linearGradient id="paint9_linear_12_23" x1="23.202" y1="8.1008" x2="664.919" y2="631.383" gradientUnits="userSpaceOnUse">
<stop stop-color="#1FB6FF"/>
<stop offset="1" stop-color="#8B5CF6"/>
</linearGradient>
<linearGradient id="paint10_linear_12_23" x1="23.1438" y1="18.2825" x2="664.861" y2="641.564" gradientUnits="userSpaceOnUse">
<stop stop-color="#1FB6FF"/>
<stop offset="1" stop-color="#8B5CF6"/>
</linearGradient>
</defs>
</svg>
